<mxfile host="app.diagrams.net" agent="Mozilla/5.0 (Windows NT 10.0; Win64; x64; rv:136.0) Gecko/20100101 Firefox/136.0" version="26.1.0">
  <diagram name="Page-1" id="zzW3G3pLdSQulo9JD9sm">
    <mxGraphModel dx="591" dy="738" grid="1" gridSize="10" guides="1" tooltips="1" connect="1" arrows="1" fold="1" page="1" pageScale="1" pageWidth="850" pageHeight="1100" math="0" shadow="0">
      <root>
        <mxCell id="0" />
        <mxCell id="1" parent="0" />
        <mxCell id="kOs6otqIvlnLuJ171Z55-13" value="PeerChannel" style="swimlane;startSize=20;horizontal=1;containerType=tree;swimlaneFillColor=default;fillColor=#bac8d3;strokeColor=#23445d;" vertex="1" parent="1">
          <mxGeometry x="40" y="200" width="520" height="450" as="geometry" />
        </mxCell>
        <mxCell id="kOs6otqIvlnLuJ171Z55-17" value="Dataflow" style="swimlane;childLayout=stackLayout;resizeParent=1;resizeParentMax=0;startSize=20;html=1;fillColor=#eeeeee;strokeColor=#36393d;" vertex="1" parent="kOs6otqIvlnLuJ171Z55-13">
          <mxGeometry x="20" y="150" width="480" height="280" as="geometry" />
        </mxCell>
        <mxCell id="kOs6otqIvlnLuJ171Z55-18" value="&lt;div&gt;Outbound&lt;/div&gt;&lt;div&gt;Broadcaster&lt;/div&gt;" style="swimlane;startSize=30;html=1;fillColor=#ffcccc;strokeColor=#36393d;" vertex="1" parent="kOs6otqIvlnLuJ171Z55-17">
          <mxGeometry y="20" width="200" height="260" as="geometry" />
        </mxCell>
        <mxCell id="kOs6otqIvlnLuJ171Z55-31" style="edgeStyle=orthogonalEdgeStyle;rounded=0;orthogonalLoop=1;jettySize=auto;html=1;exitX=0.5;exitY=1;exitDx=0;exitDy=0;entryX=0.5;entryY=0;entryDx=0;entryDy=0;endArrow=none;startFill=0;" edge="1" parent="kOs6otqIvlnLuJ171Z55-18" source="kOs6otqIvlnLuJ171Z55-28" target="kOs6otqIvlnLuJ171Z55-29">
          <mxGeometry relative="1" as="geometry" />
        </mxCell>
        <mxCell id="kOs6otqIvlnLuJ171Z55-28" value="Outbound packet added to outbound queue" style="rounded=0;whiteSpace=wrap;html=1;" vertex="1" parent="kOs6otqIvlnLuJ171Z55-18">
          <mxGeometry x="40" y="40" width="120" height="50" as="geometry" />
        </mxCell>
        <mxCell id="kOs6otqIvlnLuJ171Z55-32" style="edgeStyle=orthogonalEdgeStyle;rounded=0;orthogonalLoop=1;jettySize=auto;html=1;exitX=0.5;exitY=1;exitDx=0;exitDy=0;entryX=0.5;entryY=0;entryDx=0;entryDy=0;endArrow=none;startFill=0;" edge="1" parent="kOs6otqIvlnLuJ171Z55-18" source="kOs6otqIvlnLuJ171Z55-29" target="kOs6otqIvlnLuJ171Z55-30">
          <mxGeometry relative="1" as="geometry" />
        </mxCell>
        <mxCell id="kOs6otqIvlnLuJ171Z55-29" value="Packet dequeue from internal queue" style="rounded=0;whiteSpace=wrap;html=1;" vertex="1" parent="kOs6otqIvlnLuJ171Z55-18">
          <mxGeometry x="40" y="100" width="120" height="50" as="geometry" />
        </mxCell>
        <mxCell id="kOs6otqIvlnLuJ171Z55-30" value="Packet broadcasted to recipient peer" style="rounded=0;whiteSpace=wrap;html=1;" vertex="1" parent="kOs6otqIvlnLuJ171Z55-18">
          <mxGeometry x="40" y="160" width="120" height="50" as="geometry" />
        </mxCell>
        <mxCell id="kOs6otqIvlnLuJ171Z55-19" value="&lt;div&gt;Inbound&lt;/div&gt;&lt;div&gt;Listener&lt;/div&gt;" style="swimlane;startSize=30;html=1;fillColor=#cdeb8b;strokeColor=#36393d;" vertex="1" parent="kOs6otqIvlnLuJ171Z55-17">
          <mxGeometry x="200" y="20" width="280" height="260" as="geometry" />
        </mxCell>
        <mxCell id="kOs6otqIvlnLuJ171Z55-25" style="edgeStyle=orthogonalEdgeStyle;rounded=0;orthogonalLoop=1;jettySize=auto;html=1;exitX=0.5;exitY=1;exitDx=0;exitDy=0;endArrow=none;startFill=0;" edge="1" parent="kOs6otqIvlnLuJ171Z55-19" source="kOs6otqIvlnLuJ171Z55-21">
          <mxGeometry relative="1" as="geometry">
            <mxPoint x="140" y="100" as="targetPoint" />
          </mxGeometry>
        </mxCell>
        <mxCell id="kOs6otqIvlnLuJ171Z55-21" value="&lt;div&gt;Inbound data received, added to inbound queue&lt;/div&gt;" style="rounded=0;whiteSpace=wrap;html=1;" vertex="1" parent="kOs6otqIvlnLuJ171Z55-19">
          <mxGeometry x="80" y="40" width="120" height="50" as="geometry" />
        </mxCell>
        <mxCell id="kOs6otqIvlnLuJ171Z55-26" style="edgeStyle=orthogonalEdgeStyle;rounded=0;orthogonalLoop=1;jettySize=auto;html=1;entryX=0.5;entryY=0;entryDx=0;entryDy=0;endArrow=none;startFill=0;" edge="1" parent="kOs6otqIvlnLuJ171Z55-19" source="kOs6otqIvlnLuJ171Z55-22" target="kOs6otqIvlnLuJ171Z55-23">
          <mxGeometry relative="1" as="geometry" />
        </mxCell>
        <mxCell id="kOs6otqIvlnLuJ171Z55-27" style="edgeStyle=orthogonalEdgeStyle;rounded=0;orthogonalLoop=1;jettySize=auto;html=1;entryX=0.5;entryY=0;entryDx=0;entryDy=0;endArrow=none;startFill=0;" edge="1" parent="kOs6otqIvlnLuJ171Z55-19" source="kOs6otqIvlnLuJ171Z55-22" target="kOs6otqIvlnLuJ171Z55-24">
          <mxGeometry relative="1" as="geometry" />
        </mxCell>
        <mxCell id="kOs6otqIvlnLuJ171Z55-22" value="Packet dequeued from internal queue" style="rounded=0;whiteSpace=wrap;html=1;" vertex="1" parent="kOs6otqIvlnLuJ171Z55-19">
          <mxGeometry x="80" y="100" width="120" height="50" as="geometry" />
        </mxCell>
        <mxCell id="kOs6otqIvlnLuJ171Z55-23" value="Packet is passed to delegate function via PacketHandleProtocol" style="rounded=0;whiteSpace=wrap;html=1;" vertex="1" parent="kOs6otqIvlnLuJ171Z55-19">
          <mxGeometry x="10" y="180" width="120" height="50" as="geometry" />
        </mxCell>
        <mxCell id="kOs6otqIvlnLuJ171Z55-24" value="Packet is passed to OnDataReceived event subscriber" style="rounded=0;whiteSpace=wrap;html=1;" vertex="1" parent="kOs6otqIvlnLuJ171Z55-19">
          <mxGeometry x="150" y="180" width="120" height="50" as="geometry" />
        </mxCell>
        <mxCell id="kOs6otqIvlnLuJ171Z55-37" value="" style="sketch=0;pointerEvents=1;shadow=0;dashed=0;html=1;strokeColor=none;fillColor=#000000;labelPosition=center;verticalLabelPosition=bottom;verticalAlign=top;outlineConnect=0;align=center;shape=mxgraph.office.users.communications;" vertex="1" parent="kOs6otqIvlnLuJ171Z55-19">
          <mxGeometry x="71" y="-18" width="16" height="16" as="geometry" />
        </mxCell>
        <mxCell id="kOs6otqIvlnLuJ171Z55-33" value="Startup" style="swimlane;childLayout=stackLayout;horizontal=1;fillColor=none;horizontalStack=1;resizeParent=1;resizeParentMax=0;resizeLast=0;collapsible=0;strokeColor=none;stackBorder=10;stackSpacing=-12;resizable=1;align=center;points=[];whiteSpace=wrap;html=1;" vertex="1" parent="kOs6otqIvlnLuJ171Z55-13">
          <mxGeometry x="67" y="40" width="386" height="100" as="geometry" />
        </mxCell>
        <mxCell id="kOs6otqIvlnLuJ171Z55-34" value="&lt;div&gt;Inbound&lt;/div&gt;&lt;div&gt;Listener&lt;/div&gt;&lt;div&gt;started&lt;/div&gt;" style="shape=step;perimeter=stepPerimeter;fixedSize=1;points=[];whiteSpace=wrap;html=1;" vertex="1" parent="kOs6otqIvlnLuJ171Z55-33">
          <mxGeometry x="10" y="33" width="130" height="57" as="geometry" />
        </mxCell>
        <mxCell id="kOs6otqIvlnLuJ171Z55-35" value="&lt;div&gt;Outbound&lt;/div&gt;&lt;div&gt;Broadcaster&lt;/div&gt;&lt;div&gt;started&lt;/div&gt;" style="shape=step;perimeter=stepPerimeter;fixedSize=1;points=[];whiteSpace=wrap;html=1;" vertex="1" parent="kOs6otqIvlnLuJ171Z55-33">
          <mxGeometry x="128" y="33" width="130" height="57" as="geometry" />
        </mxCell>
        <mxCell id="kOs6otqIvlnLuJ171Z55-36" value="&lt;div&gt;Default Trust&lt;/div&gt;&lt;div&gt;Protocol&lt;/div&gt;&lt;div&gt;executes&lt;/div&gt;" style="shape=step;perimeter=stepPerimeter;fixedSize=1;points=[];whiteSpace=wrap;html=1;" vertex="1" parent="kOs6otqIvlnLuJ171Z55-33">
          <mxGeometry x="246" y="33" width="130" height="57" as="geometry" />
        </mxCell>
      </root>
    </mxGraphModel>
  </diagram>
</mxfile>
